<?xml version="1.0" standalone="no"?>
<!DOCTYPE svg PUBLIC "-//W3C//DTD SVG 20010904//EN"
 "http://www.w3.org/TR/2001/REC-SVG-20010904/DTD/svg10.dtd">
<svg version="1.0" xmlns="http://www.w3.org/2000/svg"
 width="512.000000pt" height="512.000000pt" viewBox="0 0 512.000000 512.000000"
 preserveAspectRatio="xMidYMid meet">

<g transform="translate(0.000000,512.000000) scale(0.100000,-0.100000)"
fill="#000000" stroke="none">
<path d="M155 5095 l-25 -24 0 -1229 c0 -1229 0 -1229 21 -1256 l20 -26 703 0
c591 0 705 2 722 14 18 14 19 34 24 533 l5 518 385 3 c429 3 575 -6 706 -43
642 -184 962 -898 669 -1490 -108 -218 -307 -406 -533 -506 -196 -86 -304 -99
-836 -99 l-399 0 -77 -77 c-1196 -1202 -1290 -1299 -1290 -1336 0 -27 7 -41
27 -57 l27 -21 1170 4 c1262 3 1212 2 1471 57 496 108 934 347 1295 709 435
436 681 957 741 1569 14 143 6 448 -16 586 -87 552 -315 1015 -690 1404 -439
455 -995 723 -1620 782 -68 6 -561 10 -1293 10 l-1183 0 -24 -25z"/>
</g>
</svg>
