<?xml version="1.0" standalone="no"?>
<!DOCTYPE svg PUBLIC "-//W3C//DTD SVG 20010904//EN"
 "http://www.w3.org/TR/2001/REC-SVG-20010904/DTD/svg10.dtd">
<svg version="1.0" xmlns="http://www.w3.org/2000/svg"
 width="240.000000pt" height="240.000000pt" viewBox="0 0 240.000000 240.000000"
 preserveAspectRatio="xMidYMid meet">

<g transform="translate(0.000000,240.000000) scale(0.100000,-0.100000)"
fill="#000000" stroke="none">
<path d="M881 2380 c-104 -28 -194 -81 -271 -161 -66 -68 -133 -181 -146 -247
-5 -25 -13 -32 -38 -38 -131 -28 -293 -166 -360 -306 -108 -227 -79 -468 81
-665 32 -39 34 -44 24 -80 -16 -56 -13 -206 5 -277 54 -208 226 -379 435 -430
71 -17 221 -21 283 -6 37 8 42 6 85 -32 60 -52 145 -95 239 -119 207 -53 424
8 572 162 66 68 133 181 146 247 5 25 13 32 38 38 131 28 293 166 360 306 108
227 79 468 -81 665 -32 39 -34 44 -24 80 16 56 13 206 -5 277 -54 208 -226
379 -435 430 -71 17 -221 21 -283 6 -37 -8 -42 -6 -85 32 -134 118 -354 166
-540 118z m250 -90 c73 -14 246 -99 228 -113 -2 -2 -128 -75 -279 -161 -151
-87 -285 -168 -297 -179 l-23 -20 0 -374 c0 -205 -3 -373 -7 -373 -5 1 -53 27
-108 59 l-100 59 -3 328 c-1 191 2 351 8 383 47 257 320 440 581 391z m644
-165 c162 -42 305 -189 350 -360 16 -65 20 -200 6 -210 -5 -3 -137 68 -293
158 -156 90 -291 166 -301 170 -23 9 -23 9 -366 -190 -156 -91 -290 -167 -297
-170 -11 -4 -14 19 -14 120 l0 125 278 160 c152 88 287 165 299 171 78 40 236
52 338 26z m-1010 -1181 c248 -144 322 -191 312 -200 -6 -6 -55 -35 -107 -66
l-95 -54 -280 160 c-231 133 -291 172 -342 223 -73 74 -126 175 -144 276 -34
201 77 420 263 516 l63 32 3 -350 2 -349 325 -188z m1322 505 c96 -66 182
-205 204 -332 34 -201 -77 -420 -263 -516 l-63 -32 -3 350 -2 349 -168 97
c-92 54 -238 138 -325 188 -89 52 -153 95 -148 100 4 4 53 34 107 66 l99 57
260 -149 c143 -83 279 -163 302 -178z m-697 31 c69 -40 131 -77 138 -82 9 -8
12 -57 10 -202 l-3 -190 -169 -98 -169 -97 -51 30 c-28 16 -104 60 -169 97
l-117 67 2 195 3 194 169 98 170 97 30 -18 c17 -10 87 -51 156 -91z m365 -209
l100 -59 3 -328 c1 -191 -2 -351 -8 -383 -25 -139 -129 -274 -260 -340 -152
-76 -298 -79 -442 -8 -72 36 -115 64 -107 70 2 2 128 75 279 161 151 87 285
168 298 179 l22 20 0 374 c0 205 3 373 8 373 4 -1 52 -27 107 -59z m-215 -515
l0 -124 -282 -163 c-155 -89 -305 -171 -333 -182 -72 -28 -212 -34 -295 -13
-167 43 -310 188 -355 361 -16 65 -20 200 -6 210 5 3 137 -68 293 -159 156
-90 293 -166 304 -170 20 -6 114 45 529 288 72 41 133 76 138 76 4 0 7 -56 7
-124z"/>
</g>
</svg>
